<svg id="Layer_1" enable-background="new 0 0 510 510" height="512" viewBox="0 0 510 510" width="512" xmlns="http://www.w3.org/2000/svg"><g><g><path d="m510 255c0 140.833-114.167 255-255 255s-224.392-114.167-224.392-255c0-91.635 17.726-171.981 90.291-216.933 38.96-24.135 84.903-38.067 134.101-38.067 140.833 0 255 114.167 255 255z" fill="#ffd508"/></g><g><path d="m276.776 509.065c19.147-1.833 24.931-28.648 3.364-36.916-19.448-7.453-14.036-36.354 6.791-36.354h147.887c1.051-1.158 12.744-12.246 25.619-29.728 30.8-41.827 40.511-77.037 40.511-110.127v-103.688c0-3.33-.503-6.64-1.447-9.833-.013-.045-.027-.091-.04-.136-4.298-14.441-17.551-24.357-32.617-24.357h-2.286c-6.127 0-11.093-4.967-11.093-11.093v-3.117c0-2.853-2.313-5.166-5.166-5.166h-50.878c-2.853 0-5.166 2.313-5.166 5.166v3.117c0 6.127-4.967 11.093-11.093 11.093h-18.949c-5.37 0-9.969-3.846-10.918-9.131l-5.163-28.735c-1.305-7.26-7.622-12.543-14.998-12.543h-108.335c-7.376 0-13.694 5.283-14.998 12.543l-6.804 37.867h-17.231c-2.695 0-4.88-2.185-4.88-4.88 0-2.695 2.185-4.88 4.88-4.88h3.423l-1.645-16.748c-22.63-1.206-35.106-26.928-21.944-45.376.266-.373.532-.744.799-1.114 20.861-28.952-13.155-65.639-43.493-46.85-72.412 44.847-120.906 124.99-120.906 216.921 0 141.087 114.457 255 255 255 7.007 0 14.463-.315 21.776-.935z" fill="#fcb54c"/></g><g><g><path d="m428.954 185.958h-61.21v-14.996c0-4.7 3.81-8.51 8.51-8.51h44.189c4.7 0 8.51 3.81 8.51 8.51v14.996z" fill="#67b5ec"/></g><g><path d="m99.366 168.965h55.01v21.877h-55.01z" fill="#67b5ec"/></g><g><path d="m91.844 152.835h70.836v19.234h-70.836z" fill="#a2dffd"/></g><g><path d="m124.006 181.828h352.432v71.709h-352.432z" fill="#fff"/></g><g><path d="m124.006 385.903h352.432v31.958h-352.432z" fill="#fff"/></g><g><path d="m302.106 253.537c-14.355-7.954-30.771-12.584-48.186-12.826-18.625-.259-36.132 4.429-51.301 12.826z" fill="#67b5ec"/></g><g><path d="m344.921 407.91c-3.208-5.24-3.466-11.776-.666-17.245.8-1.563 1.553-3.154 2.275-4.762h-188.157c.739 1.641 1.5 3.221 2.277 4.736 2.805 5.469 2.562 12.003-.64 17.25-3.202 5.246-8.903 8.457-15.05 8.457-.047 0-.071 0-.071 0-9.768 0-17.686-7.918-17.686-17.686v-12.757h-96.595v73.794h445.83v-43.351h-116.463c-6.145 0-11.846-3.195-15.054-8.436z" fill="#d5f1fe"/></g><g><path d="m30.608 181.828h96.596v71.709h-96.596z" fill="#d5f1fe"/></g><g><path d="m104.259 251.985h372.179v118.624h-372.179z" fill="#e04955"/></g><g><path d="m376.495 368.033c-5.831 0-11.402-2.407-15.403-6.647-4.002-4.241-6.093-9.948-5.75-15.769.119-2.025.18-4.066.18-6.121 0-9.129-1.188-17.979-3.417-26.407-3.076-11.63-.088-24.029 7.931-32.997 5.219-5.836 8.21-13.704 7.64-22.273-.986-14.799-12.835-26.886-27.615-28.137-15.395-1.303-28.638 8.906-32.089 22.962-17.394-11.141-38.355-17.201-60.789-16.084-53.19 2.65-95.917 46.131-97.732 99.356-.116 3.416-.06 6.651.118 9.683.342 5.82-1.733 11.522-5.731 15.766s-9.572 6.666-15.402 6.666c-.044 0-.067 0-.067 0-11.731 0-21.241-9.51-21.241-21.241v-94.808h-76.52v137.558h445.83v-21.507z" fill="#c40955"/></g><g><path d="m367.745 247.085c0-16.748-13.577-30.326-30.326-30.326-14.248 0-26.196 9.829-29.447 23.074-16.024-10.264-35.075-16.215-55.517-16.215l-100.156 127.482c10.965 45.137 51.647 78.651 100.157 78.651 56.922 0 103.066-46.144 103.066-103.066 0-18.042-4.641-34.997-12.786-49.747 14.211-2.515 25.009-14.919 25.009-29.853z" fill="#82abca"/></g><g><path d="m185.434 346.103c0-46.922 30.796-84.821 71.262-98.068 13.48-4.413 10.179-24.385-4.005-24.416-.492-.001-.984.001-1.477.007-55.831.657-101.379 46.391-101.821 102.224-.069 8.706.942 17.164 2.906 25.249 4.74 19.512 33.322 16.037 33.139-4.042-.003-.317-.004-.635-.004-.954z" fill="#4a82ae"/></g><g><path d="m252.455 243.037c-6.475 0-12.778.736-18.831 2.128l18.831 165.167c46.197 0 83.648-37.45 83.648-83.648s-37.45-83.647-83.648-83.647z" fill="#323b49"/></g><g><path d="m319.343 332.884c-.917-34.955-29.151-63.633-64.088-65.06-4.431-.181-8.77.07-12.98.714-6.696 1.024-10.218-7.672-4.585-11.435.234-.156.469-.312.705-.466 5.919-3.869 2.116-13.082-4.774-11.49-36.645 8.47-64.812 41.325-64.812 81.538 0 48.263 40.58 85.944 87.713 83.555 2.482-.126 2.917-3.59.566-4.394-.073-.025-.147-.05-.22-.076-2.316-.8-1.815-4.19.63-4.369 35.191-2.58 62.79-32.507 61.845-68.517z" fill="#1b1e21"/></g><g><path d="m252.455 259.774c-33.562 0-61.353 24.711-66.171 56.931l109.958 60.576c14.164-12.269 23.124-30.386 23.124-50.596 0-36.954-29.957-66.911-66.911-66.911z" fill="#fff"/></g><g><path d="m296.241 377.28c5.529-4.789.06-13.533-6.666-10.658-.179.077-.358.152-.536.227-5.964 2.488-11.281-4.496-7.466-9.712 4.692-6.416 7.314-14.44 6.881-23.093-.96-19.207-17.24-34.435-36.47-34.191-13.765.175-25.381 7.971-31.324 19.062-3.869 7.22-14.721 5.718-16.598-2.256-.053-.223-.104-.446-.154-.67-2.157-9.604-16.164-9.018-17.622.716-.553 3.691-.804 7.481-.727 11.344.729 36.568 31.314 66.069 67.886 65.539 16.357-.237 31.293-6.344 42.796-16.308z" fill="#a2dffd"/></g><g><path d="m330.043 190.842h-155.175l10.677-59.424h133.821z" fill="#fff"/></g><g><circle cx="337.419" cy="247.086" fill="#e04955" r="12.701"/></g><g><path d="m384.288 202.648h63.473v31.307h-63.473z" fill="#a2dffd"/></g><g><circle cx="160.836" cy="219.032" fill="#e04955" r="11.446"/></g><g><path d="m259.653 291.359c-2.326-.471-28.418 22.194-30.883 22.194v40.303c6.334 5.526 14.619 8.873 23.685 8.873 19.907 0 36.044-16.138 36.044-36.044.001-17.442-12.388-31.99-28.846-35.326z" fill="#323b49"/></g><g><path d="m235.004 335.894c0-16.237 10.689-29.776 25.138-34.371 5.173-1.645 4.831-9.082-.489-10.162-3.228-.655-6.614-.879-10.094-.606-17.106 1.338-31.104 14.886-32.934 31.946-1.333 12.426 3.656 23.746 12.149 31.151 4.078 3.555 10.142-.743 8.321-5.837-1.353-3.788-2.091-7.868-2.091-12.121z" fill="#1b1e21"/></g><g><path d="m207.318 156.102h91.196v25.726h-91.196z" fill="#d5f1fe"/></g><g><circle cx="258.452" cy="313.553" fill="#fff" r="16.423"/></g><g><circle cx="265.247" cy="346.134" fill="#fff" r="9.611"/></g></g></g></svg>